<?xml version="1.0" encoding="utf-8"?>
<!-- Generator: Adobe Illustrator 15.0.0, SVG Export Plug-In . SVG Version: 6.00 Build 0)  -->
<!DOCTYPE svg PUBLIC "-//W3C//DTD SVG 1.1//EN" "http://www.w3.org/Graphics/SVG/1.1/DTD/svg11.dtd">
<svg version="1.1" id="Layer_1" xmlns="http://www.w3.org/2000/svg" xmlns:xlink="http://www.w3.org/1999/xlink" x="0px" y="0px"
	 width="276.277px" height="67.008px" viewBox="0 0 276.277 67.008" enable-background="new 0 0 276.277 67.008"
	 xml:space="preserve">
<g>
	<path fill="#00A55D" d="M67.01,33.5c0,18.51-15,33.508-33.509,33.508C15.002,67.008,0,52.01,0,33.5C0,15.006,15.002,0,33.501,0
		C52.01,0,67.01,15.006,67.01,33.5z"/>
	<path fill="#FFFFFF" d="M13.411,31.525l1.042-3.806h6.58l1.033,3.806h5.885l-5.885-18.112h-6.583l0.698,1.16l-5.883,16.953H13.411z
		 M17.798,17.798h0.581l2.304,7.844h-5.652L17.798,17.798z"/>
	<path fill="#FFFFFF" d="M34.29,31.525c3.809,1.258,8.192-1.855,8.192-1.855v-3.215c0,0-3.937,4.265-7.037,1.616
		c-3.114-2.654-1.96-9.233,0-11.302c1.959-2.083,5.764-1.267,7.147,1.607c0,0,0-2.874,0-3.69c0-0.92-10.143-6.109-13.961,4.383
		C28.083,20.592,27.029,29.098,34.29,31.525z"/>
	<polygon fill="#FFFFFF" points="50.441,13.061 45.249,13.061 45.249,31.525 50.441,31.411 	"/>
	<path fill="#FFFFFF" d="M2.62,41.219c3.442,13.855,15.96,24.127,30.882,24.127c14.934,0,27.472-10.289,30.909-24.162l-0.009,0.043
		c-7.335,0.57-13.874,0.545-17.308-3.811c-3.463-4.398-17.77,2.42-18.116,2.764c-0.347,0.338-6.911,3.449-12.105,1.617
		c-5.843-2.139-13.147-0.838-14.264-0.613L2.62,41.219z"/>
	<path fill="#00A55D" d="M57.614,51.779c-1.376,1.809-2.931,3.438-4.669,4.902l-0.04-0.025c-10.368-7.5-15.04-4.379-18.157-1.725
		c-3.107,2.664-9.69,2.998-12.561,2.08c-3.011-0.957-8.966-1.119-8.966-1.119l-0.037,0.014c-0.849-0.775-1.653-1.6-2.416-2.463
		l0.064-0.004c0,0,5.234-0.232,11.234,0.334c5.996,0.584,4.717,0.82,10.492-2.99c5.763-3.799,6.116-0.162,13.5-0.811
		c8.348-0.723,11.511,1.785,11.511,1.785L57.614,51.779z"/>
	<path fill="#00A55D" d="M4.885,43.168c0,0,4.712-1.033,12.34,1.387c7.611,2.43,12.684-0.572,20.755-4.375
		c5.077-2.664,10.04-1.506,7.368,2.299c-0.908,2.318,3.13,2.076,3.816,1.957c0.705-0.109,10.029-1.553,12.392,0.391l0.006,0.016
		c-0.48,1.17-1.017,2.305-1.64,3.381l-0.045-0.023c0,0-8.169-2.834-13.819-0.889c-4.385,1.383-3.375-2.449-3.348-2.756
		c0.012-0.199-1.088-1.434-4.498,0c-3.001,1.27-9.004,4.727-9.004,4.727s-4.605,4.617-12.904-0.455
		c-2.773-1.68-6.045-3.357-10.184-2.549H6.088c-0.473-0.998-0.885-2.031-1.236-3.094L4.885,43.168z"/>
	<path fill="#00A55D" d="M49.039,59.459c-4.537,2.715-9.864,4.287-15.538,4.287c-2.262,0-4.479-0.234-6.6-0.727l-0.004,0.018
		c0,0,6.468-4.648,8.313-6.025c1.847-1.379,8.968-4.115,13.799,2.432L49.039,59.459z"/>
</g>
<g>
	<path fill="#6D6E71" d="M109.955,44.637h-6.388l-0.303-3.648h-6.85l-1.651,3.648h-7.017l11.866-22.209h7.008L109.955,44.637z
		 M102.872,36.279l-0.674-8.084h-0.057l-3.598,8.084H102.872z"/>
	<path fill="#6D6E71" d="M132.884,29.704l-6.002,0.711v-0.119c0-1.068-0.31-1.861-0.927-2.381c-0.616-0.518-1.295-0.777-2.038-0.777
		c-0.962,0-1.904,0.37-2.818,1.108c-0.917,0.738-1.651,1.867-2.204,3.385c-0.555,1.519-0.832,2.998-0.832,4.435
		c0,1.096,0.285,2.016,0.855,2.752c0.57,0.738,1.4,1.109,2.493,1.109c1.004,0,1.851-0.332,2.543-0.998
		c0.69-0.664,1.296-1.686,1.819-3.066l6.095,1c-0.638,2.295-1.866,4.225-3.689,5.791c-1.824,1.566-4.198,2.352-7.122,2.352
		c-3.051,0-5.384-0.854-6.996-2.559c-1.611-1.705-2.417-3.977-2.417-6.811c0-2.168,0.478-4.35,1.435-6.54
		c0.959-2.189,2.357-3.91,4.195-5.161c1.838-1.251,4.043-1.877,6.614-1.877c2.665,0,4.77,0.7,6.315,2.1
		C131.75,25.56,132.643,27.407,132.884,29.704z"/>
	<path fill="#6D6E71" d="M144.627,22.428l-4.517,22.209h-6.6l4.516-22.209H144.627z"/>
	<path fill="#6D6E71" d="M172.617,39.234l-1.08,5.402h-17.017l4.472-22.209h6.572l-3.386,16.807H172.617z"/>
	<path fill="#6D6E71" d="M183.133,28.569l-3.257,16.068h-5.882l3.255-16.068H183.133z M184.379,22.428l-0.862,4.248h-5.882
		l0.862-4.248H184.379z"/>
	<path fill="#6D6E71" d="M201.696,30.913c1.103-1.045,2.106-1.758,3.018-2.142c0.91-0.38,1.877-0.572,2.902-0.572
		c1.378,0,2.415,0.385,3.104,1.155c0.689,0.771,1.036,1.703,1.036,2.8c0,0.654-0.064,1.291-0.188,1.9l-2.162,10.582h-5.882
		l1.409-6.875c0.354-1.748,0.553-2.791,0.589-3.127c0.04-0.332,0.06-0.564,0.06-0.697c0-0.84-0.376-1.26-1.122-1.26
		c-0.873,0-1.595,0.385-2.166,1.152c-0.568,0.771-1.021,1.984-1.358,3.645l-1.454,7.162h-5.883l1.381-6.756
		c0.363-1.809,0.565-2.883,0.609-3.215s0.065-0.588,0.065-0.76c0-0.818-0.389-1.229-1.176-1.229c-0.592,0-1.216,0.321-1.87,0.963
		c-0.655,0.643-1.139,1.734-1.454,3.271l-1.576,7.725h-5.905l3.278-16.068h5.45l-0.474,2.302l0.058,0.061
		c1.674-1.823,3.558-2.732,5.646-2.732c0.957,0,1.804,0.237,2.542,0.708C200.909,29.381,201.421,30.049,201.696,30.913z"/>
	<path fill="#6D6E71" d="M222.424,28.569l-3.257,16.068h-5.882l3.258-16.068H222.424z M223.669,22.428l-0.859,4.248h-5.884
		l0.861-4.248H223.669z"/>
	<path fill="#6D6E71" d="M236.075,28.58l-0.894,4.386h-3.064l-1.105,5.704c-0.1,0.236-0.15,0.488-0.15,0.752
		c0,0.742,0.455,1.115,1.369,1.115c0.285,0,0.891-0.094,1.812-0.277l-0.876,4.377c-1.766,0.254-3.062,0.379-3.888,0.379
		c-1.637,0-2.804-0.416-3.487-1.242c-0.686-0.83-1.028-1.734-1.028-2.715c0-0.322,0.142-1.182,0.423-2.578l1.109-5.515h-2.132
		l0.865-4.386h2.149l0.503-2.518l6.563-3.45l-1.199,5.967H236.075z"/>
	<path fill="#6D6E71" d="M253.774,40.488c-0.853,1.604-1.969,2.756-3.347,3.459c-1.376,0.705-3.102,1.059-5.172,1.059
		c-3.015,0-5.156-0.715-6.429-2.143c-1.271-1.428-1.906-3.18-1.906-5.246c0-1.432,0.299-2.783,0.894-4.051
		c0.596-1.267,1.402-2.328,2.417-3.187c1.016-0.856,2.021-1.436,3.008-1.734c0.988-0.297,2.143-0.446,3.469-0.446
		c2.85,0,4.895,0.65,6.133,1.953c1.239,1.301,1.856,2.899,1.856,4.797c0,0.625-0.129,1.697-0.39,3.223h-11.66
		c0.161,2.154,1.069,3.232,2.724,3.232c1.121,0,2.014-0.492,2.677-1.477L253.774,40.488z M248.871,35.172
		c0.068-0.221,0.103-0.523,0.103-0.914c0-0.809-0.234-1.421-0.701-1.836c-0.468-0.413-1.039-0.621-1.721-0.621
		c-0.722,0-1.385,0.281-1.991,0.848c-0.604,0.563-1.064,1.403-1.381,2.524H248.871z"/>
	<path fill="#6D6E71" d="M276.277,22.428l-4.508,22.209h-5.448l0.29-1.617l-0.057-0.078c-0.829,0.811-1.574,1.355-2.24,1.639
		c-0.669,0.281-1.464,0.426-2.387,0.426c-1.731,0-3.053-0.604-3.971-1.807s-1.373-2.824-1.373-4.857c0-2.723,0.689-5.092,2.07-7.111
		c1.383-2.02,3.124-3.031,5.222-3.031c2.148,0,3.769,0.844,4.862,2.532l1.672-8.304H276.277z M264.305,40.941
		c1.087,0,1.92-0.631,2.501-1.902c0.578-1.268,0.869-2.563,0.869-3.887c0-0.932-0.229-1.629-0.683-2.098
		c-0.455-0.466-0.977-0.701-1.562-0.701c-0.854,0-1.587,0.571-2.202,1.707c-0.614,1.141-0.922,2.51-0.922,4.115
		c0,0.902,0.186,1.588,0.554,2.061C263.23,40.707,263.714,40.941,264.305,40.941z"/>
</g>
</svg>
