<?xml version="1.0" encoding="utf-8"?>
<!-- Generator: Adobe Illustrator 21.1.0, SVG Export Plug-In . SVG Version: 6.00 Build 0)  -->
<svg version="1.1" id="Layer_1" xmlns="http://www.w3.org/2000/svg" xmlns:xlink="http://www.w3.org/1999/xlink" x="0px" y="0px"
	 viewBox="0 0 150 78.4" style="enable-background:new 0 0 150 78.4;" xml:space="preserve">
<style type="text/css">
	.st0{fill:#283B8C;}
</style>
<g>
	<path class="st0" d="M36.4,8.5c-1.2-0.2-1.6,0-1.9,0.2c0.9,0.3,1.7,1,2.7,0.9c0.1,0,0.8-0.1,0.7-0.2C37.6,8.9,36.9,8.5,36.4,8.5z"
		/>
	<path class="st0" d="M49.6,18.6c1-1.3,2.4-2.8,3.4-3.8c1.7-2,4-3.1,5.8-4c0.9-0.3,1.9-0.5,2.7-0.6c0.7-0.1,1.3,0,1.4-0.2L63,9.8
		c0-0.1-0.1-0.2-0.3-0.3c-0.5-0.1-0.8-0.1-1.3-0.1c-0.8,0-1.4,0.1-2.6,0.3c-0.6,0.1-1.2,0.2-1.7,0.3c-1.9,0.6-3.4,1-5.6,1.7
		c-2.3,0.7-3.6,0.1-4.3,0.2c0.1,0.1,1.2,0.6,1.4,0.9c0.5,0.7,1.2,1.7,0.7,4c-0.3,1.3-1.2,2.6-1.7,3.7c-0.5,0.8-0.8,1.3-1,1.9
		c-0.1,0.2-0.1,0.3-0.1,0.3C46.5,22.7,46.2,22.9,49.6,18.6z"/>
	<path class="st0" d="M148.8,56.4c-0.6-1.4-2.1-1.6-5.1-2.2h-0.1c-0.7-0.1-1.4-0.2-2.2-0.3c-4.7-0.8-9.3-2.9-11.9-4.7
		c-2.8-1.7-5.2-7.6-5.5-10.5c-0.1-1.4-0.1-2.4,0-3.4c0-1.2,0.1-2.3-0.1-4.3c-0.2-2.1-0.5-3.5-0.6-4.2c1.7,0.5,5.8,1.5,11.1,1.7
		c2.4,0.1,4.4,0.5,5.9,0.9c1.3,0.7,2.4,1.4,3.3,2.2c0.1,0.2,0.3,0.3,0.5,0.6c0.2,0.3,0.5,0.6,0.6,0.8c0,0.5,0.1,1,0.3,1.5
		c0.5,0.9,1.4,1.3,1.4,1.3l0.6,0.2l0.1-0.6c0,0,0.1-1-0.3-1.9c-0.3-0.7-0.9-1-1.3-1.3c-0.3-0.5-0.7-0.9-1.2-1.3
		c-0.8-0.9-1.7-1.6-3-2.2l-0.2-0.1c-2.2-1-4.9-1.9-8-2.2c-8.2-1-10.5-3-10.8-3.4c-0.2-1-2.6-8.5-8.6-12.5C108.1,7.2,101.8,7,95.3,7
		c-0.9,0-1.9,0-2.8,0H92c-0.8,0-1.6,0-2.6,0c-0.2,0-0.3,0-0.6,0c-1.4,0-2.8,0.1-4.3,0.1c-1.3,0.1-2.7,0.1-4,0.3
		c-1.2,0.1-2.3,0.2-3.5,0.3c-0.9,0.1-1.7,0.2-2.7,0.3c-0.7,0.1-1.3,0.2-2,0.3c0-0.3-0.1-0.6-0.1-0.9c-0.3-1.2-1.2-1.7-2.2-2.2
		c-2.9-1.3-5.9-1.7-10.6-1.7C55,3.7,53.4,3.4,51,2.7c-0.6-0.2-1.2-0.5-1.6-0.8c-0.9-0.6-2-1.2-3.6-1.2c-0.6,0-1.3,0.1-2,0.2
		c-2,0.5-3.1,1-4.2,1.5c-0.9,0.5-1.6,0.8-2.8,0.9c-1.7,0.1-3.6,1.4-5.1,2.4l0,0c-0.6,0.3-1,0.7-1.4,0.9c-0.3,0.2-0.6,0.3-0.8,0.5
		c-0.6,0.5-1,0.7-4.8,1c-4.9,0.5-8.6,2.2-9.9,4.7c-0.7,1.5-0.9,3.5-0.9,4.8c0,0.3,0,0.9,0,1.3c-0.5,0-1.2-0.1-1.7-0.1
		C5.5,18,1.9,13.3,1.9,13.3c-0.9-1.3-1,0.1-1,0.8C1,14.7,1,17,4.8,19.9c3.6,2.7,8.5,2.7,9.7,2.6l0,0c0.2,0,0.3,0,0.3,0
		s-0.1-0.2-0.5-1.7c-0.2-0.9-0.2-1.4-0.2-1.5c0.1,0,0.2,0,0.3,0c0-0.1,0-0.2,0-0.5l0,0l0,0v0.1v0.5c1.3,0,5.1-0.9,6.9-1.4
		c0,0-0.1,0-0.1-0.1c-0.7-0.5-1.3-0.9-2-1.4c-1-0.7-2-1.3-3.3-1.3c-0.3,0-1.3,0.1-1.7,0.2c0.1-0.5,0.1-0.8,0.3-1.3
		c0.2-0.1,0.6-0.2,0.7-0.2c0.3,0,0.8,0,1.3,0c0.3,0.1,0.7,0.1,0.9,0.2c1.2,0.5,2.2,1.2,3.1,2c0.5,0.3,0.8,0.8,1.3,1.2l0,0
		c0.1,0.1,0.2,0.1,0.2,0.2c0.5-0.2,0.9-0.3,1.4-0.5c-0.1,0,1.7-0.7,2.1-0.9c-0.8-1.5-1.6-3.1-2.8-4.4c-0.3-0.5-0.8-0.8-1.3-1
		c-0.5-0.2-0.8-0.5-1.3-0.6c-0.3-0.2-0.7-0.2-1-0.2c0.2-0.1,0.5-0.1,0.7-0.2c0.6-0.1,1.2-0.2,1.9,0c1.7,0.7,2.7,2.4,3.6,4
		c0.8,1.3,1.5,2.7,2.3,4c1.3,1.7,3.4,3.8,3.4,3.8h0.1c0,0,0.1,0,0,0l0,0c-0.1,0-0.6,0-0.7,0l0,0c-0.1,0-0.1,0,0,0
		c-0.2-0.2-0.9-0.8-1.7-1.5c-1.6,0.5-8.7,2.3-12.5,2.6c-0.6,0-1.3,0.1-1.9,0.1c0.1,0.2,1.3,3.5,2.2,5.5c1.2,2.3,2.2,3.7,3.3,4.5
		c2.3,1.9,5.1,2.3,5.1,2.3l0,0c1.9,0.5,3.6,0.3,5.4-0.1c2-0.6,3.1-1.5,4-2.1c0.6-0.5,1-0.8,1.5-0.8l1.7,0.1l0.1-0.2
		c0-0.1,0.3-0.9,0-1.9c-0.2-0.6-0.8-1-1.6-1.3c-1.9-0.6-2.3-1.4-2.3-1.4l-0.1-0.3h-0.2c-0.1,0-1,0-2,1.5c-0.7,1.3-2.9,1.5-4.2,1.5
		h-0.1c-1.5,0-3.4-1.7-4.2-3.4c-0.9-1.7-1.3-3.3-0.9-3.8c0.1-0.1,0.8-0.6,3-1.3c-2,1.2-2.8,2.2-2.7,2.8c0,0.2,0.2,0.6,0.9,0.6
		c0.2,0,0.6,0,0.9-0.1c0.7-0.1,1.5-0.3,2.1-0.6c1.5-0.3,2.9-0.8,4.1-0.7l1.7,0.1c0.5,0.5,2.2,2.4,3.8,2.9c1.4,0.5,2.8,0.9,3.5,1
		c0,0.5-0.1,0.9,0,1.4c0.1,0.6,0.3,1,0.7,1.5c0.3,0.3,0.8,0.7,1.3,0.8c0.2,0.1,0.5,0.1,0.8,0.1c0.5,0,0.9-0.1,1.4-0.2
		c0.5-0.1,0.9-0.3,1.4-0.2c0.5,0.1,0.9,0.3,1.4,0.6c0.7,0.3,1.2,0.8,1.7,1.4c0.5,0.5,0.8,0.8,1,1c0.9,0.8,1.3,1.2,1.4,3.6
		c0,1.9-0.1,3.1-0.2,4.3c-0.1,1-0.2,1.9-0.1,2.8c0,0.6,0.1,1,0.3,1.7c0.2,0.9,0.3,1.9,0.3,2.6l0,0l0,0v0.1l0,0l0,0
		c-0.1,0.5-0.2,0.8-0.6,1.2c-1.6,1.4-6.4,6.1-7.5,7.5c-0.8,1-2,3.7-3.1,6.1c-0.3,0.8-0.7,1.5-0.9,2.1c-0.1,0.3-0.3,0.6-0.5,0.9
		c-0.8,1.6-1.2,2.4-2.6,3.6c-2.2,1.6-3.3,2.9-3.3,3.8c0,0.3,0.1,0.8,0.5,1c1.3,1.2,6.9,2.4,8.6,2.6c0.1,0,0.3,0,0.5,0
		c1.5,0,2.6-0.9,3-2.9c0.2-1,1.7-4.2,3-7v-0.1c0.6-1.3,1.3-2.7,1.6-3.7c1.3-2.9,3.8-5.6,5-6.1c0.8-0.3,1.6-0.5,2.3-0.7
		c0.9-0.3,1.9-0.8,2.9-0.8c0.9-0.1,1.6-0.2,2.2-0.3c-0.7,1.3-1.4,3.3-0.7,4.5c0.9,1.6,2.3,3.1,4,4.2c0.2,0.1,0.5,0.3,0.7,0.5
		l0.1,0.1c0.1,0.1,1,1,1,1c0.9,0.8,1.3,1.4,1.7,2.6c0.8,2.4,1.6,3.6,2.6,3.6c0.2,0,0.3,0,0.6-0.1c1.3-0.7,3.7-4.9,4.2-5.8
		c0.7-1.4,0.2-2.6-1.3-3.5c-0.6-0.3-2.2-1.9-2.8-2.4l-1.9-1.5c-0.9-0.7-1.4-0.9-1.7-1c0.1-0.1,0.5-0.5,1.2-0.8c1.6-1,5.1-3.7,6.5-5
		c0.2-0.1,0.3-0.3,0.5-0.5c0.9-0.9,1.3-1.2,1.3-2.6c0-0.6,0-1,0-1.4L85,48c-0.6,1.2-1.5,3.6,0.5,5.6c1.5,1.5,5.4,5,7.5,6.9
		c0.7,0.8,1.6,1.6,2.3,2.4c0.5,0.5,0.9,1,1.4,1.4c0.2,0.2,0.3,0.5,0.6,0.6c1,1.2,1.6,1.6,2.1,3.1c0.8,2.7,1.6,4,2.7,4
		c0.2,0,0.3,0,0.6-0.1c1.4-0.7,4.2-5.1,4.7-6.1c0.7-1.4,0.3-2.7-1.2-3.7c-0.7-0.5-2.9-2.7-4.7-4.5c-0.7-0.7-1.4-1.4-1.9-2
		c-0.2-0.3-0.3-0.7-0.5-0.9c-0.6-1.7,0.2-3.4,1.2-5c0.1-0.2,0.2-0.3,0.2-0.6c0.6-1,0.8-1.2,1.4-1.2s1.6,0.2,3,0.7l0.3,0.1
		c2.3,0.7,4.3,2,6.3,3.3c1,0.7,2.1,1.4,3.3,2c3.3,1.7,8.5,4.1,12.5,5.2c4,1.2,9.3,3.1,12.2,4.7c1.2,0.6,2.2,1.7,3.1,2.7
		c1,1.2,2,2.1,2.8,2.1c0.3,0,0.6-0.1,0.8-0.3c0.9-0.9,1.2-2.3,1.4-3.8c0.1-0.8,0.2-1.6,0.5-2.3C148.8,60.9,149.6,58.4,148.8,56.4z
		 M32.5,27.7c0.1,0.1,0.2,0.3,0.3,0.3c0.2,0.1,0.5,0.2,0.7,0.3c1,0.2,2.2,0.6,2.9,1.5c0.2,0.3,0.3,0.9,0.3,1.4v0.1H36c0,0,0,0-0.1,0
		c0-0.1,0-0.1,0-0.2c0-0.2,0-0.3-0.1-0.6c-0.2-0.6-0.7-1-1.3-1.3c-0.2-0.1-0.3-0.1-0.6-0.1c-0.5-0.1-0.9-0.1-1.3-0.5
		c-0.1-0.1-0.3-0.2-0.3-0.5C32.2,27.9,32.3,27.8,32.5,27.7z M30,29.7c0.1,0.1,0.1,0.3,0.1,0.5c0.2,0.7,0.5,1.4,0.2,2.1
		c-0.1,0.8,0.5,1.6,0.5,1.6c-0.2,0.1-0.3,0.1-0.6,0.2c-0.2,0.1-0.3,0.1-0.6,0.1l0,0l0,0c0,0-0.3-1,0-2.1c0.2-0.9-0.2-2.3-0.2-2.3
		C29.7,29.8,29.9,29.8,30,29.7z M24.3,31.7c0.1-0.1,0.3-0.2,0.5-0.3c0.5-0.3,0.7-0.6,0.8-1l0.1-0.6c0.1,0.1,0.2,0.1,0.3,0.2
		c0,0.1,0,0.2-0.1,0.3c-0.1,0.3-0.2,0.7-0.5,1c-0.2,0.3-0.6,0.6-0.7,1c-0.2,0.6-0.2,1.3-0.2,1.9v0.1l0,0c-0.2,0-0.3-0.1-0.6-0.1
		c-0.1,0-0.3-0.1-0.5-0.1l0,0l0,0C23.6,33.9,23.6,32.3,24.3,31.7z M16,25.3c-0.1-0.3-0.2-0.7-0.3-1c0.3-0.2,1.7-1.2,3.4-1.4
		c1.4-0.2,2.3-0.1,2.7,0c0,0.2,0,0.3,0,0.6c-0.3,0-1.4-0.1-2.7,0.3C17.5,24.2,16.3,25.1,16,25.3z M22.7,26.5L22.7,26.5
		C22.8,26.5,22.8,26.5,22.7,26.5c0.1,0.2,0.2,0.3,0.3,0.6c-0.1,0.1-1.9,1-2.6,2c-0.8,1-0.9,2.2-0.9,2.2v0.1c-0.5-0.5-0.7-0.9-1-1.4
		c0.2-0.5,0.8-1.4,1.9-2.1C21.7,27,22.7,26.5,22.7,26.5z M94.6,7.3c0.1,0.1,0.2,0.3,0.2,0.3c0.5,0.5,1.2,1,1.7,1.4
		c2,1,4.3,1.4,6.4,1c1.2-0.2,2.6-0.8,3.7-1.4c0.1-0.1,0.3-0.1,0.5-0.2c0.3,0.1,0.7,0.2,1,0.3c0,0,0.8,0.2,0.9,0.3
		c-0.1,0-0.7,0.5-1.5,0.8c-0.7,0.2-1.5,0.6-2.1,0.8c-2.9,0.8-6.2,0.5-8.9-0.8c-2.3-1-3.3-2.2-3.5-2.4C93.6,7.3,94.1,7.3,94.6,7.3z
		 M77.7,8c10.4,8.4,23.7,9.7,36,9.6c3,0,4.3-0.3,4.9-0.6c0.2,0.5,0.5,0.8,0.7,1.3c-1.6,0-10.4,0.2-17.1-0.3
		c-7.5-0.7-13.9-2.8-17.5-4.3c-3.6-1.5-9.2-5.1-9.2-5.1C76.2,8.2,76.9,8.1,77.7,8z M39.7,2.4c0.5,0,0.9,0.2,1.4,0
		c0.6-0.2,1.3-0.2,1.7-0.7C43.2,1.5,43.4,1,43.4,1l1.2-0.2c-0.3,0.5-0.7,0.9-1.2,1.4c-0.2,0.2-0.6,0.5-0.9,0.6
		c-1.2,0.6-2.4,0.5-3.6,0.1c-0.1,0-0.2,0-0.2-0.1L39.7,2.4z M34.3,4.3c0,0,0.5,0.1,1.9,1c3.4,2.4,6.5,1.2,7.5,0.5
		c1.6-1.2,2.1-1.5,4-4.4c0,0,0.3,0.2,0.8,0.5c0,0-2.3,3.6-4.4,4.8c-1.4,0.7-4.2,1.7-6.4,0.3C36.2,6,33,4.8,33,4.8S33.6,4.5,34.3,4.3
		z M48.3,14.2c-0.2-0.7-0.6-1.2-1.2-1.6c-0.2-0.1-1.2-0.7-1-1c0,0,0-0.1,0.2-0.1h0.2c0,0-0.1,0,0.5,0c0.8,0,2-0.1,3.7-0.5
		c0,0,4.9-1.7,7.3-2.1c1-0.1,2-0.2,2.9-0.2s2.1,0.1,2.6,0.7c0.3,0.3,0.3,0.7,0.2,1c-0.2,0.5-0.8,0.7-1.7,0.8c-2.1,0.2-4.1,1-5.8,2.2
		c-1.9,1.3-3.4,3.1-4.8,4.8c-1.3,1.4-2.3,3-3.5,4.4c-0.5,0.6-1.2,1.6-2.1,1.6c-1.2,0-0.2-1.7,0-2.2c0.1-0.3,0.3-0.7,0.5-1
		C47.1,18.9,48.9,16.3,48.3,14.2z M30.6,22.5c-1.9,0.1-4-0.1-5.1,0.2s-2.2,0.8-2.2,0.8s0,0,0-0.1c0.2-0.2,0.6-0.6,0.9-0.9
		c1.5-0.5,2.6-0.6,4.5-0.5s4.1-0.1,4.2-0.2C32.9,21.8,32.3,22.3,30.6,22.5z M47.4,28.1c-0.8,0.9-1.7,1.7-2.9,2.3
		c-0.7,0.3-1.3,0.5-1.9,0.5c-0.7,0-1.3-0.2-1.7-0.7c-0.6-0.6-0.8-1.5-0.7-2.8c0-0.3,0.3-1.5,0.3-1.9c0.2-0.8,0.6-1.5,0.9-2.3
		c-3-0.9-5.1-3.7-6.6-6.4c-0.5-0.8-0.9-1.6-1.4-2.3c-0.6-1.2-1.3-2.3-2-3.4c-0.9-1.3-1.7-2.4-3.1-2.7c-0.2,0-0.6,0-0.7-0.1
		c1-0.2,1.4-0.3,1.9-0.7c0.2,0,0.5,0.1,0.8,0.3c0.6,0.3,1.2,0.9,1.5,1.5c0.8,1.2,1.5,2.6,2.2,3.7c0.2,0.5,0.6,0.9,0.8,1.4
		c1.6,3,3.8,6.9,7.2,7.7c0.2-0.5,0.6-1,0.8-1.5s0.3-0.7,0.5-0.8l0,0l0.5-0.8c-0.5-0.6-0.9-1.5-1.2-2.9c-0.2-2.3-0.7-4.9-2.8-6.3
		c-0.1-0.1-0.3-0.1-0.6-0.2c-0.7,0.2-1.3,0.3-2.1,0.2c-0.6,0-0.7-0.1-1.3-0.3c-0.3-0.1-0.3-0.1-1.2-0.6c-0.1,0-2-0.8-2-0.8l0,0
		c2.6-1.3,3.8-1,4.9-0.3c0.5,0.2,0.9,0.6,1.3,0.8c0.6,0.2,1.7,1,1.7,1c1,0.9,1.4,1.7,1.6,2.3c0.9,2.2,0.2,3.4,1,5.2
		c0.1,0.2,0.3,0.6,0.6,0.8l0.3-0.6l0,0c0.1-0.2,0.1-0.3,0.2-0.6l0,0l0,0c0-0.1,0.1-0.1,0.1-0.2c0.7-2.1-0.8-4.2-1.3-5
		C43.2,11.5,43,11.2,43,11c-0.1-0.3-0.3-0.6-0.3-0.6l-0.2-0.3l0.3,0.2c0,0,3.8,2.8,2.6,6.4c-0.6,1.7-1.5,3.3-2.2,4.7
		c-0.8,1.4-1.4,2.6-1.6,3.6c-0.2,1.2-0.6,2.8,0,3.6c0.2,0.3,0.6,0.5,1,0.5h0.1c1.7,0,3.3-1.9,4.8-3.7l1-1.2c2-2.3,5.8-6.8,7.3-8.4
		c1.6-1.7,4.5-3.5,6.5-4c0.2,0,0.5-0.1,0.7-0.1c1.7-0.3,3.6-0.8,5.8-2c0.8-0.5,1.3-1,1.2-1.7c-0.1-0.9-1-1.7-1.9-2
		c-2.9-0.8-6.1-1.3-9.1-1.2c-2.2,0.1-4.3,0.5-6.3,1.5c-2.1,1-4.1,2.2-6.2,3l-0.8,0.3l0.7-0.5c3.5-2.6,7.3-4.4,11.8-5
		c1-0.1,2.1-0.2,3.1-0.2c3.4,0,7.7,0.7,9.3,2.4c0.6,0.6,0.8,1.2,0.7,1.9c0,0.1,0,0.3-0.1,0.5c-0.1,0.3-0.2,0.7-1,1.4
		c-1.4,1.2-4,1.7-5.2,2h-0.1c1.9,1.4,9.3,6.3,21.2,9.6c23.7,6.4,34.3,5.6,36.2,5.1v0.2c0.1,0.2,0.2,0.8,0.3,1.5c0,0-5.8-0.1-17-1.6
		c-10.7-1.5-26-5.5-38.6-11.4c-2.2-1-3.7-2.1-4.5-2.7c-1.2,0.3-2.6,0.9-3.8,1.7c-0.8,0.6-1.5,1.2-2.2,1.7c-1.5,1.5-1.4,1.5-1.5,1.5
		c-1.2,1.3-2.2,2.6-3.3,3.8c1.4-0.5,4.8-1.3,8.7-0.2c0,0,29.7,11.3,43.4,14.8c13.6,3.5,14.3,3.3,16.9,3.3c1.6,0,2.2-0.2,2.3-0.3
		c0.1,0.3,0.1,0.8,0.2,1.2c-0.9,0.2-5.5,0.8-18.2-2.8c-0.5-0.1-0.8-0.2-1.3-0.3c-1.3,0.3-5.7,1.5-8.4,1.9c-3.1,0.5-6.1,0.9-12.9,0
		c-5-0.7-8.7-1.7-8.7-1.7l0.7-1.2c0,0,6.9,2.6,12.9,2.7c5.9,0.1,7.8-0.6,9.8-1c2.3-0.5,4.5-1.2,4.5-1.2h0.2
		c-4.2-1.2-7.9-2.3-11.2-3.4c-0.3,0.1-0.7,0.1-1,0.2c-2,0.3-3.7,0.7-7.9,0c-3.1-0.5-5.4-1.2-5.4-1.2l0.5-1.2c0,0,4.2,1.9,7.8,1.9
		c2.2,0,3.5-0.1,4.4-0.2c-5.6-1.7-10.3-3.4-15-5c-8.6-3.1-13.8-5.7-17.2-5.6c-2.4,0.1-4.8,0.6-6.1,0.8c-0.2,0.2-0.3,0.5-0.6,0.7
		c-0.5,0.6-0.9,1.2-1.4,1.7C48.2,27.1,48.2,27.1,47.4,28.1z M50.2,34.4l-1.3-1.3c0,0,2.7-0.9,3.8-1c1.5-0.2,3.8-0.1,7.3,1
		c6.3,2.1,8.7,2.3,11.7,2.4c2.9,0.1,3.5,0,3.5,0l-0.6,0.8c0,0-6.3,0.5-13.8-1.9c-4-1.3-6.1-1.3-8-0.9C51.7,33.7,50.2,34.4,50.2,34.4
		z M44,76.4c-1.2,0.1-2.4,0.2-3.6-0.1c-1-0.3-1.9-1.2-2.7-1.9c-0.8-0.8-1.7-1.3-2.9-1.5c-0.6-0.1-1-0.1-1.3-0.2
		c0.3-0.3,0.7-0.7,1.2-1.2c0.9,0,1.7,0.2,2.4,0.8c0.7,0.5,1.3,1.2,2,1.7c0.8,0.6,1.6,1.2,2.7,1.4c0.5,0.1,0.8,0.1,1.3,0.1
		c0.3,0,0.9,0,1.4-0.1C44.4,76,44.2,76.2,44,76.4z M47.7,67.9c-0.2,0.3-0.3,0.8-0.6,1.3c-0.6-0.3-2.2-1.4-2.9-1.9
		c-0.8-0.6-2-1.4-3-1.5c-0.8-0.1-1.6,0-2,0c0.1-0.3,0.3-0.7,0.5-1c0.5,0,1.7,0,2.9,0.6c0,0,3.1,1.9,4.1,2.2
		C47.3,67.7,47.6,67.8,47.7,67.9L47.7,67.9z M51.3,60.9c-0.6-0.2-2.2-0.8-3.1-1.5c-1.2-0.8-1.6-1.7-2.9-1.6c-1.2,0-2.1,0.3-2.1,0.3
		c0-0.1,0.1-0.1,0.1-0.2c0.2-0.2,0.5-0.6,0.8-1c0.5-0.1,2-0.5,3.3,0.5c1.5,1.3,2.7,2,3.4,2.3c0.5,0.2,0.9,0.3,1.3,0.5
		C51.8,60.5,51.6,60.7,51.3,60.9z M57.1,57.1C57.1,57.2,56.9,57.2,57.1,57.1c-0.2-0.2-1.6-2.1-2.7-3.5c-2-2.6-4.5-2.3-4.5-2.3
		l0.3-0.3c0.2-0.2,0.5-0.3,0.6-0.6l0,0c0.5,0.1,2.7,0.8,3.7,2c1,1.2,1.4,1.9,2.1,2.7c0.7,0.7,1.9,1.3,2.2,1.3
		C58.2,56.6,57.6,56.8,57.1,57.1z M57.1,44.8c-1.6-0.5-4.5-0.3-5.6,0c-0.9,0.3-0.8,0.1-0.8,0.1v-1.5c0,0,2-0.8,4.8-0.2
		c2.8,0.6,7.9,3,10.3,3.5c2.3,0.6,4.2,0.5,4.2,0.5l-0.5,0.7c-0.1,0-2.4,0.2-5-0.7C61.7,46.4,58.8,45.3,57.1,44.8z M71.7,67.2
		c2-1.5,2.7-2.4,3-2.8c0.1-0.2,0.2-0.5,0.3-0.6c0.2,0.2,0.5,0.3,0.7,0.6c-0.2,0.3-1.5,2-2.9,3c-1.6,1.2-1.9,2.7-2,3.4
		c-0.1,0.5-0.1,0.9-0.1,1.2c-0.3-0.3-0.6-0.9-0.9-1.7C69.9,69.5,70.2,68.3,71.7,67.2z M69.3,60.3c0.3-0.5,0.5-0.7,0.5-0.8
		c0.1,0.1,0.2,0.2,0.5,0.3c-0.1,0.3-0.5,1.2-1,1.7c-0.7,0.8-1.9,1.3-2.3,2.1c-0.2,0.5-0.3,1.3-0.3,1.6l-0.1-0.1
		c-0.2-0.2-0.5-0.3-0.7-0.5c-0.1-0.1-0.2-0.1-0.2-0.2c0.1-0.5,0.6-1.6,1.5-2.3C68.1,61.4,68.8,61,69.3,60.3z M68.6,58
		c-0.5-0.2-2.7-1.3-4.1-1.4c-1.5-0.2-2,0.2-2,0.2s0.6-0.9,0.7-1.2c0.1-0.1,0.3-0.5,0.3-0.5s0.9-0.3,2.6,0.6c1.6,0.8,3,1.7,3,1.7
		C68.9,57.8,68.7,57.9,68.6,58z M72.1,55.6c-0.1-0.3-0.8-2.2-1.6-3.1c-0.9-0.9-2.9-1.2-2.9-1.2l0.7-0.8c0,0,1.6,0.3,2.6,1.4
		c0.9,1,1.9,2.7,2.1,3C72.7,55.2,72.3,55.3,72.1,55.6z M78,49.4c0,0.5-0.1,0.8-0.1,1c-0.5-0.6-2-2.6-3.6-3.5c-2-1-3.7-0.8-3.7-0.8
		l0.2-1c0,0,2.1,0.1,3.7,1c1.4,0.8,3,2,3.6,2.3C78,48.8,78,49,78,49.4z M118.6,46.6c-4.5-0.2-6.8-0.9-10.5-1.7
		c-6.2-1.4-11.3,2.9-32.3-0.8c-1.6-0.3-4.2-0.9-4.2-0.9l0.5-0.9c0,0,13.4,4.5,28.9,1.7c2.9-0.6,6.6-0.3,9.8,0.6
		c7.8,2.4,13.4,0.8,14.6,0.5c0.2,0.3,0.3,0.7,0.6,1C125.2,46.1,122.4,46.8,118.6,46.6z"/>
</g>
</svg>
