<svg xmlns="http://www.w3.org/2000/svg" viewBox="0 0 162.14 40.71"><defs><style>.cls-1{fill:#010103;}</style></defs><title>Asset 2</title><g id="Layer_2" data-name="Layer 2"><g id="Layer_1-2" data-name="Layer 1"><path class="cls-1" d="M42.13,12.17c-4.49,0-7,2.33-7.73,7.33V0H28.71V39.8H34.4V26.38c0-6.08,2.1-9.1,6.08-9.1,3.18,0,4.94,1.88,4.94,5.63V39.8h5.69V22.68c0-6.76-3.35-10.51-9-10.51"/><path class="cls-1" d="M13.42,12.22c-4.49,0-7,2.22-7.73,7.28V0H0V39.8H5.69V33.49c1.08,4.94,3.86,6.87,7.9,6.87,6.25,0,10.57-5.74,10.57-14.09s-4.38-14-10.74-14M12,35.08c-3.93,0-6.43-3.47-6.43-8.93S8.07,17.4,12,17.4s6.48,3.41,6.48,8.87S16,35.08,12,35.08"/><path class="cls-1" d="M80.22,34.74h-1c-1.59,0-2.21-.57-2.21-1.88V21.55c0-6.31-3.07-9.33-10.18-9.33-6.25,0-10.29,3.3-10.63,8.64l5.34.18c.06-2.51,1.77-4.1,5.12-4.1s4.83,1.25,4.83,4.89v.46l-5.68,1.13c-8.07,1.6-10.29,4.21-10.29,9.1,0,4.49,3.13,7.67,8.07,7.73s7.39-2.1,8.19-7l.17,2.27c.22,3,1.36,4.27,4.38,4.27h3.92Zm-8.7-8.36-.11,1.88c-.29,4.94-2.45,7.22-6.31,7.22-2.68,0-4-1.48-4-3.25,0-2,.91-3.24,3.81-4Z"/><path class="cls-1" d="M107.28,34.74h-1c-1.6,0-2.22-.57-2.22-1.88V21.55c0-6.31-3.07-9.33-10.18-9.33-6.25,0-10.29,3.3-10.63,8.64l5.35.18c0-2.51,1.76-4.1,5.11-4.1s4.83,1.25,4.83,4.89v.46l-5.68,1.13c-8.07,1.6-10.29,4.21-10.29,9.1,0,4.49,3.13,7.67,8.07,7.73s7.39-2.1,8.19-7L99,35.53c.23,3,1.36,4.27,4.38,4.27h3.92Zm-8.7-8.36-.11,1.88c-.29,4.94-2.45,7.22-6.31,7.22-2.67,0-4-1.48-4-3.25,0-2,.91-3.24,3.81-4Z"/><path class="cls-1" d="M124.39,12.17c-4.49,0-7,2.33-7.73,7.33V13.08H111V39.8h5.69V26.38c0-6.08,2.1-9.1,6.08-9.1,3.19,0,5,1.88,5,5.63V39.8h5.68V22.68c0-6.76-3.35-10.51-9-10.51"/><path class="cls-1" d="M150,35.53c-4,0-6.49-3-6.71-8.07h18.87c-.23-9.32-4.94-15.24-12.16-15.24S137.3,18.14,137.3,26.44,142.53,40.71,150,40.71a11.88,11.88,0,0,0,11.65-9.1l-4.95-1c-1.25,3.41-3.24,4.89-6.7,4.89m0-18.42c3.18,0,5.45,2.22,6,5.69H143.49A6.31,6.31,0,0,1,150,17.11"/></g></g></svg>