<svg version="1.1" id="logo" xmlns="http://www.w3.org/2000/svg" xmlns:xlink="http://www.w3.org/1999/xlink" x="0px" y="0px"
	 width="330px" height="114px" viewBox="0 0 330 114" enable-background="new 0 0 330 114" xml:space="preserve">
<g>
	<g>
		<path d="M137.247,73.571c-8.749,0-15.118,6.495-15.118,14.985c0,7.645,5.69,14.395,15.118,14.395
			c8.191,0,14.732-6.244,14.732-14.817C151.979,80.664,147.051,73.571,137.247,73.571z M137.795,101.635
			c-8.366,0-11.42-8.15-11.42-14.436c0-9.299,5.732-12.314,10.148-12.314c8.106,0,11.207,7.559,11.207,14.566
			C147.729,97.814,142.887,101.635,137.795,101.635z"/>
		<path d="M246.99,100.448c-0.122,0-0.338,0.168-0.545,0.296c-0.257,0.125-0.639,0.255-1.068,0.255
			c-1.652,0-1.691-1.782-1.691-3.694v-7.318c0-3.354-1.36-5.037-4.418-5.037c-5.025,0-7.898,3.013-7.898,5.223
			c0,0.381,0.211,0.594,0.594,0.594c0.637,0,1.783-0.297,2.422-0.807c0.338-0.257,0.38-0.766,0.426-1.445
			c0.084-1.314,1.691-1.909,2.88-1.909c2.632,0,2.978,2.124,2.937,3.694v1.811c0,0.639-0.129,1.16-0.766,1.375l-5.051,1.824
			c-2.719,0.978-3.525,1.951-3.525,3.609c0,1.189,0.509,2.251,1.314,2.972c0.724,0.639,1.827,0.978,2.97,0.978
			c1.153,0,3.342-0.42,5.058-2.205c0.43,1.502,2.082,2.205,3.098,2.205c2.142,0,3.532-1.707,3.641-1.943
			C247.365,100.924,247.166,100.448,246.99,100.448z M240.627,95.373v2.484c-0.041,0.889-0.298,1.525-0.807,2.034
			c-0.424,0.43-1.744,1.062-2.589,1.062c-2.165,0-2.678-1.823-2.678-2.547c0-1.653,1.233-2.289,3.737-3.141l2.336-0.759V95.373z"/>
		<path d="M259.754,100.533c0-1.446,1.02-2.508,2.377-2.508c1.443,0,2.375,1.146,2.375,2.508c0,1.356-0.932,2.334-2.375,2.334
			C260.903,102.867,259.754,101.974,259.754,100.533z"/>
		<circle cx="247.046" cy="100.785" r="0.349"/>
		<path d="M197.74,87.35c0-0.482-0.383-0.871-0.869-0.871h-2.861c-0.938,0-1.23-0.088-2.592-0.68
			c-0.973-0.424-2.464-0.85-4.073-0.85c-3.782,0-6.925,2.76-6.925,6.412c0,2.714,1.801,4.521,3.576,5.328
			c0,0-3.699,1.307-3.699,3.291c0,1.752,1.312,3.169,3.707,3.652c-4.785,2.041-4.305,5.135-4.305,5.135
			c0,2.123,1.828,4.926,7.053,4.926c5.514,0,10.566-3.396,10.566-8.026c0-4.246-3.566-4.668-5.944-4.668
			c-1.867,0-3.606,0.127-5.055,0.127c-1.993,0-2.968-0.805-2.968-1.784c0-1.232,1.361-2.037,1.866-2.335
			c0.511,0.042,1.102,0.13,1.868,0.13c5.395,0,7.138-3.821,7.138-6.753c0-0.72,0-1.444-0.09-2.165h2.737
			C197.357,88.219,197.74,87.829,197.74,87.35z M184.922,104.097c0.596-0.38,2.296-0.468,3.65-0.468h1.441
			c3.059,0,4.843,1.106,4.843,3.695c0,2.421-2.503,4.544-6.284,4.544c-3.859,0-5.688-1.912-5.688-4.204
			C182.885,106.051,183.901,104.735,184.922,104.097z M187.725,95.902c-2.039,0-3.863-1.95-3.863-4.971
			c0-2.883,1.525-4.748,3.567-4.748c2.585,0,3.78,2.418,3.78,5.307C191.209,94.075,190.014,95.902,187.725,95.902z"/>
		<path d="M108.416,98.918L108.416,98.918c0.021-0.053,0.033-0.115,0.033-0.177c0-0.257-0.205-0.468-0.47-0.468
			c-0.121,0-0.235,0.047-0.322,0.133h-0.007c-1.317,1.656-2.506,2.083-3.905,2.083c-4.544,0-7.052-3.651-7.052-7.939
			c0-1.06,0.046-1.147,1.15-1.147h7.855h2.072c0.156,0,0.298-0.078,0.38-0.198h0.003l0.003-0.003
			c0.027-0.043,0.049-0.09,0.061-0.142c0.084-0.221,0.157-0.585,0.157-1.06c0-2.544-2.382-5.051-6.031-5.051
			c-5.094,0-8.532,4.373-8.532,9.594c0,1.869,0.506,3.863,1.782,5.52c1.23,1.615,3.396,2.805,6.155,2.805
			c2.187,0,5.199-1.043,6.623-3.867C108.386,98.976,108.4,98.948,108.416,98.918L108.416,98.918z M101.878,86.222
			c2.461,0,3.266,1.487,3.266,2.679c0,0,0.015,0.521,0.015,0.764c0,0.406-0.21,0.466-0.407,0.466c-0.175,0-4.276,0-4.276,0h-3.013
			c-0.301,0-0.301-0.13-0.301-0.214C97.203,88.514,99.372,86.222,101.878,86.222z"/>
		<path d="M83.846,86.632c2.337-1.167,4.315-3.114,4.315-6.013c0-2.719-1.403-4.414-3.224-5.309
			c-1.912-0.974-4.457-1.188-7.138-1.188c-3.785,0-6.599,0.117-8.846,0.316v0.002c-0.274,0.025-0.485,0.251-0.485,0.527
			c0,0.291,0.238,0.531,0.531,0.531l1.001,0.088c1.909,0.169,2.071,1.041,2.071,4.18v16.135c0,4.457-0.087,4.926-2.334,5.308
			l-0.766,0.127l-0.003,0.003c-0.277,0.018-0.5,0.244-0.5,0.528c0,0.292,0.238,0.53,0.531,0.53c0.018,0,0.036-0.002,0.051-0.002
			c0,0,0,0.002,0.006,0.002h9.977c7.645,0,11.294-3.312,11.294-8.236C90.327,89.617,86.139,87.054,83.846,86.632z M75.553,85.417
			v-8.618c0-0.764,0.169-0.976,0.594-1.105c0.383-0.168,1.017-0.254,1.955-0.254c3.223,0,6.323,1.572,6.323,5.734
			c0,3.986-2.333,5.262-6.664,5.431c-0.308,0.013-0.576,0.022-0.809,0.024h-1.399V85.417z M79.796,101.084
			c-1.27,0-2.548-0.215-3.354-1.192c-0.808-0.932-0.89-3.097-0.89-4.626v-6.284v-1.104h2.461c6.75,0,8.447,3.909,8.447,7.26
			C86.461,99.383,83.578,101.084,79.796,101.084z"/>
		<path d="M165.178,84.949c-1.566,0-3.307,1.43-4.796,2.66v-2.955v-0.007c0-0.005,0.005-0.012,0.005-0.015
			c0-0.154-0.124-0.277-0.277-0.277c-0.049,0-0.09,0.015-0.129,0.037h-0.007l-4.137,2.033v0.004c-0.148,0.079-0.25,0.233-0.25,0.411
			c0,0.192,0.12,0.36,0.293,0.431l0,0c1.209,0.787,1.363,1.16,1.363,2.816v7.428c0,3.059-0.039,3.438-1.611,3.694l-0.558,0.084l0,0
			c-0.29,0.016-0.525,0.257-0.525,0.553c0,0.302,0.25,0.552,0.552,0.552h3.037h1.809h3.101c0.311,0,0.558-0.25,0.558-0.552
			c0-0.296-0.235-0.537-0.521-0.553l0,0l-0.558-0.084c-0.432-0.072-1.21-0.117-1.508-0.288c-0.625-0.357-0.636-1.187-0.636-3.406
			V91.74c0-1.441,0.126-2.672,0.555-3.266c0.337-0.469,0.848-0.85,1.526-0.85c0.597,0,1.233,0.252,1.87,0.678
			c0.295,0.172,0.509,0.299,0.934,0.299c0.68,0,1.824-0.553,1.824-1.955C167.09,85.631,166.242,84.949,165.178,84.949z"/>
		<g>
			<path d="M172.609,80.193c1.191,0,2.25-0.679,2.25-2.208c0-1.187-0.848-2.207-2.123-2.207c-1.273,0-2.293,0.893-2.293,2.29
				C170.443,79.219,171.295,80.193,172.609,80.193z"/>
			<path d="M176.642,101.294L176.642,101.294l-0.552-0.084c-1.568-0.257-1.613-0.636-1.613-3.694v-3.927v-8.564
				c0-0.257-0.213-0.464-0.465-0.464c-0.078,0-0.15,0.018-0.211,0.051l0,0l-3.83,1.795h-0.003l-0.027,0.014v0.004
				c-0.153,0.078-0.254,0.232-0.254,0.41c0,0.17,0.089,0.313,0.225,0.398l0,0c1.142,0.762,1.423,1.199,1.423,2.855v3.501v3.927
				c0,3.059-0.039,3.438-1.613,3.694l-0.553,0.084l0,0c-0.289,0.016-0.524,0.257-0.524,0.553c0,0.302,0.247,0.552,0.555,0.552h3.031
				h1.81h2.575c0.307,0,0.552-0.25,0.552-0.552C177.166,101.551,176.938,101.31,176.642,101.294z"/>
		</g>
		<g>
			<path d="M203.308,80.193c1.188,0,2.245-0.679,2.245-2.208c0-1.187-0.847-2.207-2.118-2.207c-1.272,0-2.296,0.893-2.296,2.29
				C201.139,79.219,201.99,80.193,203.308,80.193z"/>
			<path d="M207.34,101.294L207.34,101.294l-0.553-0.084c-1.57-0.257-1.611-0.636-1.611-3.694v-3.927v-8.564
				c0-0.257-0.209-0.464-0.47-0.464c-0.071,0-0.147,0.018-0.21,0.051l0,0l-3.828,1.795c0,0-0.006,0-0.009,0.002l-0.027,0.012v0.004
				c-0.147,0.078-0.249,0.232-0.249,0.41c0,0.17,0.09,0.313,0.223,0.398l0,0c1.146,0.762,1.426,1.199,1.426,2.855v3.501v3.927
				c0,3.059-0.041,3.438-1.612,3.694l-0.55,0.084l0,0c-0.296,0.016-0.53,0.257-0.53,0.553c0,0.302,0.25,0.552,0.558,0.552h3.031
				h1.805h2.58c0.305,0,0.555-0.25,0.555-0.552C207.867,101.551,207.635,101.31,207.34,101.294z"/>
		</g>
		<path d="M256.867,101.294L256.867,101.294l-0.551-0.084c-1.572-0.257-1.613-0.636-1.613-3.694v-3.927V72.383
			c0-0.26-0.209-0.469-0.471-0.469c-0.079,0-0.143,0.022-0.211,0.055l0,0L250.2,73.76c-0.01,0-0.014,0.004-0.019,0.007l-0.021,0.012
			l0,0c-0.148,0.079-0.251,0.233-0.251,0.413c0,0.169,0.089,0.314,0.226,0.395l0,0c1.141,0.767,1.425,1.201,1.425,2.855v16.147
			v3.927c0,3.059-0.041,3.438-1.616,3.694l-0.552,0.084l0,0c-0.293,0.016-0.519,0.257-0.519,0.553c0,0.302,0.24,0.552,0.546,0.552
			h3.034h1.809h2.578c0.305,0,0.553-0.25,0.553-0.552C257.393,101.551,257.16,101.31,256.867,101.294z"/>
		<path d="M229.203,101.294L229.203,101.294l-0.551-0.084c-1.575-0.257-1.611-0.636-1.611-3.694l0,0v-7.301
			c0-2.844-1.445-5.266-4.97-5.266c-2.163,0-5.001,1.285-6.411,2.35v-2.274c0-0.257-0.211-0.464-0.465-0.464
			c-0.082,0-0.148,0.018-0.214,0.051l0,0l-3.823,1.792c-0.007,0.003-0.01,0.005-0.01,0.005l-0.031,0.012v0.004
			c-0.145,0.078-0.25,0.232-0.25,0.41c0,0.17,0.088,0.313,0.223,0.398l0,0c1.146,0.762,1.43,1.199,1.43,2.855v7.428l0,0
			c0,3.059-0.041,3.438-1.613,3.694l-0.551,0.084l0,0c-0.293,0.016-0.525,0.257-0.525,0.553c0,0.302,0.25,0.552,0.549,0.552h3.034
			h1.81h2.579c0.301,0,0.554-0.25,0.554-0.552c0-0.296-0.234-0.537-0.526-0.553l0,0l-0.557-0.084
			c-1.571-0.257-1.612-0.636-1.612-3.694v-3.927l0,0V91.02c0-1.229,0.088-1.826,0.639-2.545c0.592-0.809,1.994-1.486,3.609-1.486
			c2.883,0,3.99,1.781,3.99,4.201v2.399l0,0v3.927c0,3.059-0.044,3.438-1.612,3.694l-0.559,0.084l0,0
			c-0.289,0.016-0.521,0.257-0.521,0.553c0,0.302,0.25,0.552,0.547,0.552h3.037h1.808h2.577c0.305,0,0.553-0.25,0.553-0.552
			C229.729,101.551,229.496,101.31,229.203,101.294z"/>
	</g>
	<g>
		<polyline fill="#E6000D" points="112.216,18.48 83.373,18.48 83.373,1.708 68.469,1.708 68.469,45.586 83.373,45.586 
			83.373,27.95 112.216,27.95 112.216,45.586 127.117,45.586 127.117,1.708 112.216,1.708 112.216,18.48 		"/>
		<path fill="#E6000D" d="M156.603,1.708l-26.726,43.878h11.387l5.474-8.979h30.806l5.302,8.979h18.196L174.322,1.708H156.603z
			 M152.009,27.95l10.372-17.037l10.061,17.037H152.009"/>
		<path fill="#E6000D" d="M260.158,20.72c3.555-4.652,3.07-11.46-3.736-15.367c-6.355-3.637-18.481-4.979-26.055-4.979
			c-12.119,0-19.925,0.816-26.563,1.947v43.267h14.904V8.89c5.368-1.058,10.814-1.085,12.854-0.992
			c5.914,0.269,9.24,1.183,11.906,3.076c2.744,1.95,3.488,6.292-0.078,9.297c-2.669,2.248-8.092,4.02-20.213,2.159l-1.703,2.814
			l22.911,20.342h20.284L244.289,27.95C249.189,27.326,256.617,25.359,260.158,20.72"/>
		<path fill="#E6000D" d="M35.801,16.869c-8.598-1.667-15.911-2.715-15.911-5.502c0-3.102,5.911-3.896,14.285-2.993
			c7.923,0.833,15.399,2.904,22.371,5.875l5.296-8.684C56.21,3.417,44.595,0.67,34.064,0.358C22.508,0.02,3.017,1.058,2.175,12.731
			C1.406,23.426,16.633,25.977,26.618,28.295c9.735,2.28,18.874,3.096,18.874,6.463c0,2.375-3.224,4.229-11.735,3.588
			c-10.235-0.77-18.958-3.573-27.661-7.892L0.32,39.941c9.648,3.776,22.293,6.801,33.695,6.992
			c13.544,0.222,28.85-1.965,29.188-13.569C63.486,23.68,53.462,20.302,35.801,16.869"/>
		<path fill="#E6000D" d="M321.334,5.353c-6.066-3.584-17.429-4.979-26.141-4.979c-12.127,0-20.017,0.816-26.654,1.947v43.267
			h14.898V29.73c4.602,0.773,10.38,1.226,15.367,1.184c12.199-0.098,21.259-2.964,25.391-7.451
			C330.076,17.069,328.104,9.355,321.334,5.353z M308.309,20.362c-2.576,2.106-6.34,2.856-12.268,2.839
			c-4.383-0.019-8.916-0.817-12.604-1.657V8.89c5.365-1.058,10.908-1.073,12.939-0.992c5.957,0.249,9.42,1.261,11.997,3.076
			C311.059,12.852,311.948,17.374,308.309,20.362"/>
	</g>
</g>
</svg>
